<svg aria-hidden="true" style="position: absolute; width: 0; height: 0; overflow: hidden;" version="1.1" xmlns="http://www.w3.org/2000/svg" xmlns:xlink="http://www.w3.org/1999/xlink">
<defs>
<symbol id="icon-close" viewBox="0 0 24 24">
<path d="M18.984 6.422l-5.578 5.578 5.578 5.578-1.406 1.406-5.578-5.578-5.578 5.578-1.406-1.406 5.578-5.578-5.578-5.578 1.406-1.406 5.578 5.578 5.578-5.578z"></path>
</symbol>
<symbol id="icon-sunset" viewBox="0 0 24 24">
<path d="M18 18c0-1.657-0.673-3.158-1.757-4.243s-2.586-1.757-4.243-1.757-3.158 0.673-4.243 1.757-1.757 2.586-1.757 4.243c0 0.552 0.448 1 1 1s1-0.448 1-1c0-1.105 0.447-2.103 1.172-2.828s1.723-1.172 2.828-1.172 2.103 0.447 2.828 1.172 1.172 1.723 1.172 2.828c0 0.552 0.448 1 1 1s1-0.448 1-1zM3.513 10.927l1.42 1.42c0.391 0.391 1.024 0.391 1.414 0s0.391-1.024 0-1.414l-1.42-1.42c-0.391-0.391-1.024-0.391-1.414 0s-0.391 1.024 0 1.414zM1 19h2c0.552 0 1-0.448 1-1s-0.448-1-1-1h-2c-0.552 0-1 0.448-1 1s0.448 1 1 1zM21 19h2c0.552 0 1-0.448 1-1s-0.448-1-1-1h-2c-0.552 0-1 0.448-1 1s0.448 1 1 1zM19.067 12.347l1.42-1.42c0.391-0.391 0.391-1.024 0-1.414s-1.024-0.391-1.414 0l-1.42 1.42c-0.391 0.391-0.391 1.024 0 1.414s1.024 0.391 1.414 0zM23 21h-22c-0.552 0-1 0.448-1 1s0.448 1 1 1h22c0.552 0 1-0.448 1-1s-0.448-1-1-1zM15.293 4.293l-2.293 2.293v-4.586c0-0.552-0.448-1-1-1s-1 0.448-1 1v4.586l-2.293-2.293c-0.391-0.391-1.024-0.391-1.414 0s-0.391 1.024 0 1.414l4 4c0.096 0.096 0.206 0.168 0.324 0.217s0.247 0.076 0.383 0.076 0.265-0.027 0.383-0.076c0.118-0.049 0.228-0.121 0.324-0.217l4-4c0.391-0.391 0.391-1.024 0-1.414s-1.024-0.391-1.414 0z"></path>
</symbol>
<symbol id="icon-sunrise" viewBox="0 0 24 24">
<path d="M18 18c0-1.657-0.673-3.158-1.757-4.243s-2.586-1.757-4.243-1.757-3.158 0.673-4.243 1.757-1.757 2.586-1.757 4.243c0 0.552 0.448 1 1 1s1-0.448 1-1c0-1.105 0.447-2.103 1.172-2.828s1.723-1.172 2.828-1.172 2.103 0.447 2.828 1.172 1.172 1.723 1.172 2.828c0 0.552 0.448 1 1 1s1-0.448 1-1zM3.513 10.927l1.42 1.42c0.391 0.391 1.024 0.391 1.414 0s0.391-1.024 0-1.414l-1.42-1.42c-0.391-0.391-1.024-0.391-1.414 0s-0.391 1.024 0 1.414zM1 19h2c0.552 0 1-0.448 1-1s-0.448-1-1-1h-2c-0.552 0-1 0.448-1 1s0.448 1 1 1zM21 19h2c0.552 0 1-0.448 1-1s-0.448-1-1-1h-2c-0.552 0-1 0.448-1 1s0.448 1 1 1zM19.067 12.347l1.42-1.42c0.391-0.391 0.391-1.024 0-1.414s-1.024-0.391-1.414 0l-1.42 1.42c-0.391 0.391-0.391 1.024 0 1.414s1.024 0.391 1.414 0zM23 21h-22c-0.552 0-1 0.448-1 1s0.448 1 1 1h22c0.552 0 1-0.448 1-1s-0.448-1-1-1zM8.707 6.707l2.293-2.293v4.586c0 0.552 0.448 1 1 1s1-0.448 1-1v-4.586l2.293 2.293c0.391 0.391 1.024 0.391 1.414 0s0.391-1.024 0-1.414l-4-4c-0.092-0.092-0.202-0.166-0.324-0.217-0.245-0.101-0.521-0.101-0.766 0-0.118 0.049-0.228 0.121-0.324 0.217l-4 4c-0.391 0.391-0.391 1.024 0 1.414s1.024 0.391 1.414 0z"></path>
</symbol>
<symbol id="icon-humidity" viewBox="0 0 24 24">
<path d="M12.707 1.983c-0.391-0.391-1.025-0.39-1.415 0.001l-5.653 5.663c-1.757 1.758-2.635 4.063-2.634 6.365s0.88 4.607 2.638 6.363c1.756 1.755 4.059 2.633 6.358 2.634 2.308-0.001 4.613-0.881 6.37-2.638 1.755-1.756 2.633-4.059 2.634-6.358-0.001-2.309-0.881-4.613-2.638-6.369zM12.001 4.105l4.952 4.952c1.368 1.367 2.052 3.156 2.052 4.949s-0.682 3.583-2.049 4.95-3.156 2.051-4.949 2.052-3.583-0.682-4.95-2.049-2.051-3.156-2.052-4.949 0.682-3.583 2.049-4.95z"></path>
</symbol>
<symbol id="icon-spinner" viewBox="0 0 32 32">
<path d="M16 32c-4.274 0-8.292-1.664-11.314-4.686s-4.686-7.040-4.686-11.314c0-3.026 0.849-5.973 2.456-8.522 1.563-2.478 3.771-4.48 6.386-5.791l1.344 2.682c-2.126 1.065-3.922 2.693-5.192 4.708-1.305 2.069-1.994 4.462-1.994 6.922 0 7.168 5.832 13 13 13s13-5.832 13-13c0-2.459-0.69-4.853-1.994-6.922-1.271-2.015-3.066-3.643-5.192-4.708l1.344-2.682c2.615 1.31 4.824 3.313 6.386 5.791 1.607 2.549 2.456 5.495 2.456 8.522 0 4.274-1.664 8.292-4.686 11.314s-7.040 4.686-11.314 4.686z"></path>
</symbol>
<symbol id="icon-wind" viewBox="0 0 32 32">
<path d="M19.26 12.559c2.555 1.815 8.702 6.28 8.306 6.967-0.396 0.686-7.304-2.389-10.166-3.7v0l0.893 15.174c0 0-0.5 1-2 1s-2-1-2-1l0.893-15.174c-2.862 1.311-9.77 4.386-10.166 3.7-0.397-0.687 5.75-5.152 8.306-6.967-0.021 0.144-0.032 0.291-0.032 0.441 0 1.657 1.343 3 3 3s3-1.343 3-3c0-0.15-0.011-0.297-0.032-0.441v0 0zM18.171 10.662c-0.295-3.129-1.087-10.662-1.88-10.662s-1.585 7.532-1.88 10.662c0.514-0.414 1.168-0.662 1.88-0.662s1.365 0.248 1.88 0.662v0 0zM16.292 15c1.105 0 2-0.895 2-2s-0.895-2-2-2c-1.105 0-2 0.895-2 2s0.895 2 2 2v0z"></path>
</symbol>
<symbol id="icon-search" viewBox="0 0 32 32">
<path d="M19.427 20.427c-1.39 0.99-3.090 1.573-4.927 1.573-4.694 0-8.5-3.806-8.5-8.5s3.806-8.5 8.5-8.5c4.694 0 8.5 3.806 8.5 8.5 0 2.347-0.951 4.472-2.49 6.010l5.997 5.997c0.275 0.275 0.268 0.716-0.008 0.992-0.278 0.278-0.72 0.28-0.992 0.008l-6.081-6.081zM14.5 21c4.142 0 7.5-3.358 7.5-7.5s-3.358-7.5-7.5-7.5c-4.142 0-7.5 3.358-7.5 7.5s3.358 7.5 7.5 7.5v0z"></path>
</symbol>
<symbol id="icon-warning" viewBox="0 0 32 32">
<path d="M14.424 6.148l-10.785 17.449c-1.165 1.885-0.316 3.403 1.889 3.403h20.944c2.204 0 3.050-1.523 1.889-3.403l-10.785-17.449c-0.868-1.404-2.281-1.408-3.151 0zM15.353 6.523c0.347-0.561 0.912-0.559 1.258 0l11.005 17.783c0.579 0.936 0.146 1.695-0.942 1.695h-21.384c-1.099 0-1.524-0.754-0.942-1.695l11.005-17.783zM16 12c-0.552 0-1 0.453-1 0.997v6.006c0 0.551 0.444 0.997 1 0.997 0.552 0 1-0.453 1-0.997v-6.006c0-0.551-0.444-0.997-1-0.997v0zM16 24c0.552 0 1-0.448 1-1s-0.448-1-1-1c-0.552 0-1 0.448-1 1s0.448 1 1 1v0z"></path>
</symbol>
<symbol id="icon-wind" viewBox="0 0 32 32">
<path d="M19.26 12.559c2.555 1.815 8.702 6.28 8.306 6.967-0.396 0.686-7.304-2.389-10.166-3.7v0l0.893 15.174c0 0-0.5 1-2 1s-2-1-2-1l0.893-15.174c-2.862 1.311-9.77 4.386-10.166 3.7-0.397-0.687 5.75-5.152 8.306-6.967-0.021 0.144-0.032 0.291-0.032 0.441 0 1.657 1.343 3 3 3s3-1.343 3-3c0-0.15-0.011-0.297-0.032-0.441v0 0zM18.171 10.662c-0.295-3.129-1.087-10.662-1.88-10.662s-1.585 7.532-1.88 10.662c0.514-0.414 1.168-0.662 1.88-0.662s1.365 0.248 1.88 0.662v0 0zM16.292 15c1.105 0 2-0.895 2-2s-0.895-2-2-2c-1.105 0-2 0.895-2 2s0.895 2 2 2v0z"></path>
</symbol>
<symbol id="icon-search" viewBox="0 0 32 32">
<path d="M19.427 20.427c-1.39 0.99-3.090 1.573-4.927 1.573-4.694 0-8.5-3.806-8.5-8.5s3.806-8.5 8.5-8.5c4.694 0 8.5 3.806 8.5 8.5 0 2.347-0.951 4.472-2.49 6.010l5.997 5.997c0.275 0.275 0.268 0.716-0.008 0.992-0.278 0.278-0.72 0.28-0.992 0.008l-6.081-6.081zM14.5 21c4.142 0 7.5-3.358 7.5-7.5s-3.358-7.5-7.5-7.5c-4.142 0-7.5 3.358-7.5 7.5s3.358 7.5 7.5 7.5v0z"></path>
</symbol>
</defs>
</svg>
